<svg xmlns="http://www.w3.org/2000/svg" version="1.1" xmlns:xlink="http://www.w3.org/1999/xlink" xmlns:svgjs="http://svgjs.dev/svgjs" width="1440" height="560" preserveAspectRatio="none" viewBox="0 0 1440 560"><g mask="url(&quot;#SvgjsMask1436&quot;)" fill="none"><rect width="1440" height="1440" x="0" y="0" fill="url(&quot;#SvgjsLinearGradient1437&quot;)"></rect><path d="M-6.68 416.36C95.23 416.62 194.12 486.36 394.92 486.36 595.72 486.36 594.32 416.2 796.51 416.36 998.71 416.52 1089.62 578.12 1198.11 581.29" stroke="rgba(51,121,194,0.58)" stroke-width="2"></path><path d="M-94.1 89.46C18.41 89.67 128.17 159.46 350.45 159.46 572.72 159.46 542.9 74.5 794.99 89.46 1047.08 104.42 1072.4 581.6 1239.54 638.93" stroke="rgba(51,121,194,0.58)" stroke-width="2"></path><path d="M-173.25 250.65C-7.23 252.68 127.96 435.63 463.01 441.05 798.07 446.47 930.11 668.25 1099.28 671.78" stroke="rgba(51,121,194,0.58)" stroke-width="2"></path><path d="M-187.87 40.43C-8.79 41.87 213.34 204.03 505.72 219.63 798.1 235.23 731.5 548.08 852.51 578.28" stroke="rgba(51,121,194,0.58)" stroke-width="2"></path><path d="M-85.51 499.41C19.69 499.65 121.95 569.41 329.41 569.41 536.88 569.41 536.43 499.38 744.34 499.41 952.24 499.44 1050.99 622.24 1159.26 623.56" stroke="rgba(51,121,194,0.58)" stroke-width="2"></path></g><defs><mask id="SvgjsMask1436"><rect width="1440" height="560" fill="#ffffff"></rect></mask><linearGradient x1="15.28%" y1="-39.29%" x2="84.72%" y2="139.29%" gradientUnits="userSpaceOnUse" id="SvgjsLinearGradient1437"><stop stop-color="#0e2a47" offset="0"></stop><stop stop-color="rgba(49, 114, 197, 1)" offset="1"></stop></linearGradient></defs></svg>